<?xml version="1.0" standalone="no"?>
<!DOCTYPE svg PUBLIC "-//W3C//DTD SVG 20010904//EN"
 "http://www.w3.org/TR/2001/REC-SVG-20010904/DTD/svg10.dtd">
<svg version="1.0" xmlns="http://www.w3.org/2000/svg"
 width="512.000000pt" height="512.000000pt" viewBox="0 0 512.000000 512.000000"
 preserveAspectRatio="xMidYMid meet">
<metadata>
Created by potrace 1.14, written by Peter Selinger 2001-2017
</metadata>
<g transform="translate(0.000000,512.000000) scale(0.100000,-0.100000)"
fill="#000000" stroke="none">
<path d="M390 5104 c-30 -8 -80 -26 -110 -41 -72 -35 -188 -151 -223 -223 -61
-126 -57 23 -57 -2280 0 -2303 -4 -2154 57 -2280 35 -72 151 -188 223 -223
126 -61 -23 -57 2280 -57 2303 0 2154 -4 2280 57 72 35 188 151 223 223 61
126 57 -23 57 2280 0 2303 4 2154 -57 2280 -35 72 -151 188 -223 223 -127 61
23 57 -2285 56 -1816 0 -2118 -2 -2165 -15z m2930 -2029 c-1 -517 -5 -998 -10
-1070 -20 -290 -89 -473 -241 -640 -107 -118 -208 -183 -356 -229 -154 -48
-389 -53 -558 -11 -86 21 -210 79 -287 135 l-58 41 0 315 c0 172 4 314 8 314
5 0 26 -25 46 -55 54 -78 163 -177 235 -213 84 -42 157 -55 272 -50 192 9 300
96 356 285 16 53 18 153 21 1088 l3 1030 284 0 285 0 0 -940z"/>
</g>
</svg>
